<svg xmlns="http://www.w3.org/2000/svg"  viewBox="0 0 48 48" width="25px" height="25px"><path fill="#74cccf" d="M38.125,3.934c-7.277,0.472-6.212,0.173-11.56,0.173c-0.881,0-3.822,0.346-4.703,0.318 c-3.437-0.109-4.781-0.072-6.946,0.07C11.957,4.69,5.771,3.916,4.873,5.491c-1.438,2.522-1.047,4.894-1.152,7.006 c-0.105,2.112,0.453,8.099,0.482,11.056c0.049,4.98,0.271,6.211,0.048,11.689c-0.081,1.999-0.308,3.643-0.07,5.629 c0.239,1.995,1.34,3.585,7.313,3.585c4.324,0,5.388-0.507,9.84-0.695c4.169-0.176,5.069,0.068,6.721,0.077 c1.333,0.007,3.754,0.049,5.087,0.027c1.24-0.02,4.138,0.147,5.407,0.044c1.269-0.103,3.263-0.422,4.105-2.044 c0.25-0.482,0.373-1.026,0.432-1.566c0.28-2.556,0.045-7.948-0.007-8.467c-0.486-4.861,0.095-4.633,0.095-9.494 c0-1.349-0.122-5.685-0.095-7.034c0.07-3.415,0.068-5.234,0-6.32C42.819,4.813,41.042,3.934,38.125,3.934"/><path fill="#010101" d="M11.496,44.956c-5.204,0-7.466-1.167-7.81-4.026c-0.183-1.521-0.101-2.842-0.014-4.24 c0.029-0.475,0.06-0.96,0.08-1.469c0.148-3.646,0.098-5.411,0.035-7.647c-0.032-1.12-0.067-2.362-0.083-4.016 c-0.013-1.307-0.133-3.251-0.249-5.131c-0.15-2.447-0.293-4.758-0.233-5.955c0.022-0.442,0.021-0.896,0.021-1.359 c-0.001-1.768-0.002-3.77,1.195-5.87c0.733-1.283,3.386-1.324,7.342-1.24c1.169,0.024,2.274,0.049,3.104-0.006 c2.211-0.145,3.599-0.178,6.995-0.07c0.445,0.018,1.541-0.082,2.509-0.166c0.899-0.078,1.749-0.152,2.177-0.152 c1.742,0,2.807,0.031,3.699,0.058c1.832,0.058,2.935,0.088,7.828-0.229l0.032-0.001c3.067,0,5.168,0.938,5.453,5.518 c0.07,1.12,0.071,2.963,0.001,6.361c-0.016,0.783,0.02,2.622,0.052,4.244c0.022,1.155,0.043,2.222,0.043,2.779 c0,1.978-0.094,3.106-0.177,4.102c-0.119,1.442-0.206,2.484,0.079,5.343c0.062,0.601,0.285,6.028,0.008,8.572 c-0.075,0.687-0.233,1.257-0.485,1.741c-1.054,2.031-3.653,2.243-4.508,2.312c-0.808,0.065-2.228,0.026-3.479-0.009 c-0.773-0.021-1.489-0.04-1.961-0.034c-0.922,0.012-2.357,0-3.599-0.014l-1.498-0.014c-0.529-0.003-0.982-0.028-1.488-0.058 c-1.06-0.062-2.378-0.139-5.209-0.019c-1.962,0.083-3.241,0.226-4.478,0.364C15.36,44.795,13.925,44.956,11.496,44.956z M9.757,4.974c-2.014,0-4.084,0.123-4.45,0.765c-1.065,1.869-1.064,3.65-1.063,5.373c0,0.481,0,0.951-0.022,1.409 c-0.057,1.143,0.09,3.533,0.232,5.845c0.117,1.893,0.237,3.85,0.25,5.183c0.016,1.646,0.051,2.882,0.083,3.997 c0.064,2.255,0.114,4.037-0.035,7.717C4.73,35.777,4.7,36.271,4.67,36.751c-0.084,1.352-0.163,2.628,0.009,4.06 c0.191,1.592,0.875,3.146,6.816,3.146c2.374,0,3.717-0.15,5.271-0.324c1.254-0.141,2.551-0.286,4.547-0.371 c2.88-0.121,4.228-0.043,5.31,0.02c0.487,0.028,0.925,0.055,1.435,0.057l1.504,0.014c1.232,0.014,2.656,0.025,3.572,0.014 c0.485-0.006,1.214,0.013,2.004,0.034c1.229,0.035,2.619,0.071,3.371,0.013c1.246-0.102,2.985-0.396,3.702-1.777 c0.193-0.372,0.316-0.827,0.378-1.389c0.271-2.479,0.052-7.776-0.008-8.363c-0.295-2.951-0.2-4.087-0.081-5.525 c0.081-0.977,0.173-2.083,0.173-4.02c0-0.554-0.021-1.612-0.043-2.76c-0.032-1.632-0.068-3.48-0.052-4.284 c0.069-3.369,0.069-5.188,0.001-6.278c-0.239-3.843-1.745-4.577-4.438-4.58c-4.926,0.319-6.047,0.286-7.906,0.23 c-0.886-0.026-1.941-0.058-3.67-0.058c-0.385,0-1.252,0.075-2.09,0.148c-1.045,0.091-2.127,0.183-2.627,0.17 c-3.377-0.109-4.685-0.077-6.898,0.068c-0.872,0.059-1.999,0.033-3.19,0.008C11.148,4.989,10.456,4.974,9.757,4.974z"/><path fill="#010101" d="M11.496,44.956c-5.204,0-7.466-1.167-7.81-4.026c-0.183-1.521-0.101-2.842-0.014-4.24	c0.029-0.475,0.06-0.96,0.08-1.469c0.148-3.646,0.098-5.411,0.035-7.647c-0.032-1.12-0.067-2.362-0.083-4.016	c-0.013-1.307-0.133-3.251-0.249-5.131c-0.15-2.447-0.293-4.758-0.233-5.955c0.022-0.442,0.021-0.896,0.021-1.359	c-0.001-1.768-0.002-3.77,1.195-5.87c0.733-1.283,3.386-1.324,7.342-1.24c1.169,0.024,2.274,0.049,3.104-0.006	c2.211-0.145,3.599-0.178,6.995-0.07c0.445,0.018,1.541-0.082,2.509-0.166c0.899-0.078,1.749-0.152,2.177-0.152	c1.742,0,2.807,0.031,3.699,0.058c1.832,0.058,2.935,0.088,7.828-0.229l0.032-0.001c3.067,0,5.168,0.938,5.453,5.518	c0.07,1.12,0.071,2.963,0.001,6.361c-0.016,0.783,0.02,2.622,0.052,4.244c0.022,1.155,0.043,2.222,0.043,2.779	c0,1.978-0.094,3.106-0.177,4.102c-0.119,1.442-0.206,2.484,0.079,5.343c0.062,0.601,0.285,6.028,0.008,8.572	c-0.075,0.687-0.233,1.257-0.485,1.741c-1.054,2.031-3.653,2.243-4.508,2.312c-0.808,0.065-2.228,0.026-3.479-0.009	c-0.773-0.021-1.489-0.04-1.961-0.034c-0.922,0.012-2.357,0-3.599-0.014l-1.498-0.014c-0.529-0.003-0.982-0.028-1.488-0.058	c-1.06-0.062-2.378-0.139-5.209-0.019c-1.962,0.083-3.241,0.226-4.478,0.364C15.36,44.795,13.925,44.956,11.496,44.956z M9.757,4.974c-2.014,0-4.084,0.123-4.45,0.765c-1.065,1.869-1.064,3.65-1.063,5.373c0,0.481,0,0.951-0.022,1.409	c-0.057,1.143,0.09,3.533,0.232,5.845c0.117,1.893,0.237,3.85,0.25,5.183c0.016,1.646,0.051,2.882,0.083,3.997	c0.064,2.255,0.114,4.037-0.035,7.717C4.73,35.777,4.7,36.271,4.67,36.751c-0.084,1.352-0.163,2.628,0.009,4.06	c0.191,1.592,0.875,3.146,6.816,3.146c2.374,0,3.717-0.15,5.271-0.324c1.254-0.141,2.551-0.286,4.547-0.371	c2.88-0.121,4.228-0.043,5.31,0.02c0.487,0.028,0.925,0.055,1.435,0.057l1.504,0.014c1.232,0.014,2.656,0.025,3.572,0.014	c0.485-0.006,1.214,0.013,2.004,0.034c1.229,0.035,2.619,0.071,3.371,0.013c1.246-0.102,2.985-0.396,3.702-1.777	c0.193-0.372,0.316-0.827,0.378-1.389c0.271-2.479,0.052-7.776-0.008-8.363c-0.295-2.951-0.2-4.087-0.081-5.525	c0.081-0.977,0.173-2.083,0.173-4.02c0-0.554-0.021-1.612-0.043-2.76c-0.032-1.632-0.068-3.48-0.052-4.284	c0.069-3.369,0.069-5.188,0.001-6.278c-0.239-3.843-1.745-4.577-4.438-4.58c-4.926,0.319-6.047,0.286-7.906,0.23	c-0.886-0.026-1.941-0.058-3.67-0.058c-0.385,0-1.252,0.075-2.09,0.148c-1.045,0.091-2.127,0.183-2.627,0.17	c-3.377-0.109-4.685-0.077-6.898,0.068c-0.872,0.059-1.999,0.033-3.19,0.008C11.148,4.989,10.456,4.974,9.757,4.974z"/><path fill="#d03827" d="M35.064,12.358c-2.567-0.005-2.866-0.046-5.523-0.208c-2.562-0.157-5.621,0.488-8.188,0.488	c-3.416,0-3.157-0.049-8.213,0.024c-0.581,0.008-2.248-0.128-3.117,0.383c-1.286,0.757-1.308,2.563-1.277,3.474	c0.078,2.312,0.162,3.376,0.247,4.124c4.749,0.201,8.951,0.236,13.889,0.038c3.151-0.126,5.624-0.121,9.338-0.012	c2.252,0.066,3.727-0.219,5.231-0.052l0.17-0.087c0.018-1.612,0.095-3.238,0.226-5.133C37.934,14.161,37.064,12.362,35.064,12.358z M16.754,17.809c-0.098,0.16-0.203,0.326-0.367,0.419c-0.26,0.147-0.549,0.081-0.847,0.113c-0.281,0.03-0.625-0.092-0.885-0.168	c-0.462-0.134-0.917-0.528-1.033-0.996c-0.047-0.19-0.011-0.389,0.024-0.581c0.03-0.162,0.062-0.329,0.156-0.465	c0.221-0.32,0.693-1.067,1.558-1.064c0.469-0.028,0.953,0.111,1.31,0.415c0.357,0.305,0.574,0.78,0.53,1.247	C17.164,17.121,16.959,17.474,16.754,17.809z M25.951,17.017c-0.148,0.387-0.377,0.661-0.765,0.929	c-0.137,0.094-0.534,0.164-0.7,0.162c-0.758-0.013-1.084-0.039-1.467-0.302c-0.398-0.273-0.519-0.776-0.567-1.196	c-0.055-0.478,0.07-0.884,0.577-1.316c0.188-0.16,0.439-0.299,0.92-0.32c0.552-0.131,1.214,0.083,1.557,0.301	c0.343,0.219,0.511,0.53,0.544,0.935C26.075,16.525,26.064,16.721,25.951,17.017z M33.839,17.138	c-0.275,0.431-0.796,0.627-0.946,0.626c-0.219-0.001-0.489,0.08-0.823,0.051c-0.544-0.046-0.808-0.121-1.189-0.512	c-0.11-0.113-0.436-0.473-0.464-0.629c-0.122-0.685-0.053-1.028,0.272-1.455c0.325-0.428,0.917-0.632,1.437-0.495	c0.561-0.042,1.138,0.394,1.457,0.681c0.318,0.287,0.546,0.71,0.491,1.135C34.046,16.754,33.955,16.956,33.839,17.138z"/><path fill="#d6e5e5" d="M8.87,19.201c-0.001-0.009-0.001-0.016-0.002-0.024C8.869,19.185,8.869,19.192,8.87,19.201z"/><path fill="#d6e5e5" d="M8.831,18.529c-0.003-0.065-0.007-0.137-0.01-0.206C8.824,18.392,8.827,18.464,8.831,18.529z"/><path fill="#d6e5e5" d="M8.793,17.729c-0.004-0.082-0.007-0.162-0.011-0.248C8.786,17.567,8.79,17.647,8.793,17.729z"/><path fill="#d6e5e5" d="M8.918,19.857c-0.004-0.048-0.008-0.096-0.012-0.147C8.91,19.76,8.914,19.808,8.918,19.857z"/><path fill="#d6e5e5" d="M37.76,16.782c0.026-0.448,0.056-0.907,0.089-1.386C37.816,15.875,37.786,16.335,37.76,16.782z"/><path fill="#d6e5e5" d="M37.933,32.638c-0.036-2.693-0.101-3.483-0.137-6.426c-0.14-2.113-0.193-3.893-0.173-5.69 c0,0.002,0,0.005,0,0.007l-0.17,0.087c-1.504-0.167-2.979,0.117-5.231,0.052c-3.714-0.109-6.187-0.114-9.338,0.012 c-4.938,0.198-9.141,0.163-13.889-0.038c0.144,1.258,0.295,1.617,0.438,5.51c0.14,3.786,0.065,6.115,0.05,6.451 c-0.085,1.909-0.163,4.806,2.551,4.486c3.668-0.433,5.263,0.096,8.955,0.026c5.261-0.1,8.406-0.083,14.742-0.381 c0.645-0.03,1.641-0.686,1.901-1.409C37.932,34.489,37.94,33.181,37.933,32.638z"/><path fill="#d6e5e5" d="M8.958,20.302c-0.004-0.044-0.009-0.091-0.013-0.138C8.949,20.211,8.953,20.258,8.958,20.302z"/><path fill="#010101" d="M20.306,37.622c-1.167,0-2.115-0.057-3.037-0.111c-1.62-0.097-3.02-0.179-5.177,0.074	c-0.895,0.104-1.617-0.089-2.145-0.58C8.833,35.97,8.923,33.93,8.983,32.58c0.001-0.022,0.099-2.357-0.05-6.409	c-0.113-3.055-0.23-3.916-0.343-4.748c-0.121-0.893-0.236-1.735-0.342-4.888c-0.025-0.733-0.102-2.967,1.523-3.921	c0.847-0.499,2.203-0.473,3.015-0.457c0.138,0.003,0.259,0.005,0.347,0.004c3.441-0.051,4.424-0.043,5.774-0.033	c0.635,0.005,1.352,0.01,2.446,0.01c1.109,0,2.297-0.122,3.555-0.251c1.569-0.16,3.195-0.324,4.664-0.236l0.905,0.056	c1.861,0.116,2.361,0.147,4.589,0.151c0.935,0.002,1.749,0.347,2.354,0.997c0.635,0.682,0.99,1.669,0.928,2.577	c-0.293,4.228-0.307,6.939-0.053,10.748c0,0.009,0.001,0.018,0.001,0.027c0.019,1.527,0.045,2.474,0.071,3.409	c0.024,0.865,0.048,1.721,0.065,3.016c0.013,0.852-0.035,2.039-0.33,2.862c-0.336,0.934-1.537,1.701-2.348,1.739	c-4.821,0.227-7.804,0.272-11.257,0.324c-1.094,0.017-2.235,0.033-3.5,0.058C20.759,37.62,20.528,37.622,20.306,37.622z M14.86,36.417c0.872,0,1.659,0.047,2.469,0.096c1.078,0.063,2.193,0.133,3.651,0.103c1.266-0.023,2.409-0.041,3.503-0.058	c3.445-0.052,6.42-0.097,11.225-0.322c0.463-0.022,1.267-0.56,1.453-1.079c0.258-0.718,0.28-1.881,0.271-2.511	c-0.018-1.289-0.041-2.141-0.065-3.002c-0.025-0.937-0.053-1.884-0.071-3.411c-0.252-3.804-0.238-6.65,0.054-10.87	c0.044-0.631-0.216-1.348-0.661-1.827c-0.418-0.448-0.965-0.677-1.625-0.678c-2.258-0.004-2.765-0.036-4.649-0.153l-0.903-0.056	c-1.394-0.089-2.973,0.076-4.502,0.233c-1.227,0.126-2.497,0.256-3.656,0.256c-1.098,0-1.816-0.005-2.454-0.01	c-1.344-0.011-2.324-0.018-5.751,0.033c-0.1,0-0.23-0.001-0.382-0.004c-0.658-0.014-1.884-0.038-2.488,0.318	c-0.749,0.44-1.086,1.43-1.032,3.025c0.105,3.102,0.217,3.92,0.334,4.787c0.116,0.856,0.237,1.742,0.351,4.846	c0.151,4.092,0.051,6.467,0.05,6.49c-0.048,1.096-0.129,2.928,0.646,3.648c0.309,0.286,0.751,0.39,1.347,0.32	C13.083,36.462,14.011,36.417,14.86,36.417z"/><path fill="#010101" d="M24.493,18.607c-0.005,0-0.011,0-0.016,0c-0.768-0.013-1.228-0.037-1.741-0.39	c-0.655-0.45-0.75-1.279-0.781-1.552c-0.08-0.694,0.159-1.251,0.749-1.754c0.321-0.272,0.685-0.408,1.177-0.437	c0.674-0.143,1.448,0.095,1.893,0.377c0.466,0.298,0.727,0.74,0.773,1.315c0.031,0.367,0.02,0.641-0.129,1.027	c-0.181,0.475-0.473,0.834-0.946,1.162C25.212,18.535,24.709,18.607,24.493,18.607z M24.312,15.432	c-0.085,0-0.169,0.009-0.249,0.027c-0.03,0.008-0.062,0.012-0.093,0.013c-0.371,0.017-0.514,0.113-0.619,0.202	c-0.384,0.327-0.439,0.57-0.404,0.879c0.05,0.437,0.166,0.712,0.354,0.841c0.247,0.169,0.425,0.201,1.192,0.214	c0.087-0.006,0.352-0.048,0.427-0.084c0.291-0.203,0.454-0.398,0.562-0.685c0.082-0.213,0.089-0.333,0.067-0.588	c-0.021-0.263-0.116-0.428-0.314-0.555C25.04,15.57,24.662,15.432,24.312,15.432z M23.948,14.973h0.01H23.948z"/><path fill="#010101" d="M15.448,18.846c-0.295,0-0.588-0.089-0.83-0.162l-0.104-0.031c-0.671-0.194-1.226-0.739-1.377-1.356	c-0.073-0.298-0.021-0.583,0.018-0.791c0.034-0.184,0.081-0.433,0.236-0.658c0.285-0.414,0.876-1.275,1.955-1.279	c0.605-0.028,1.211,0.161,1.648,0.535c0.491,0.418,0.76,1.06,0.704,1.673c-0.049,0.525-0.32,0.97-0.518,1.294	c-0.105,0.173-0.265,0.434-0.547,0.594c-0.385,0.219-0.724,0.142-1.041,0.175C15.545,18.844,15.497,18.846,15.448,18.846z M15.354,15.567c-0.514,0-0.841,0.413-1.106,0.8c-0.067,0.098-0.091,0.222-0.109,0.32c-0.024,0.132-0.052,0.281-0.03,0.37	c0.064,0.264,0.366,0.542,0.686,0.635l0.114,0.034c0.184,0.056,0.44,0.127,0.579,0.117c0.278-0.03,0.55,0.008,0.654-0.05	c0.057-0.033,0.138-0.165,0.187-0.245c0.19-0.312,0.35-0.594,0.375-0.866c0.027-0.29-0.113-0.612-0.356-0.819	c-0.247-0.21-0.596-0.319-0.955-0.297c-0.011,0.001-0.024-0.002-0.033,0.001C15.357,15.567,15.356,15.567,15.354,15.567z"/><path fill="#010101" d="M32.216,18.321c-0.06,0-0.123-0.002-0.188-0.008c-0.636-0.054-1.023-0.166-1.506-0.662	c-0.356-0.369-0.558-0.668-0.598-0.888c-0.146-0.817-0.05-1.3,0.366-1.848c0.429-0.563,1.196-0.839,1.882-0.695	c0.01,0,0.02,0,0.028,0c0.67,0,1.299,0.436,1.717,0.813c0.479,0.432,0.723,1.019,0.652,1.569c-0.035,0.268-0.14,0.537-0.311,0.804	c-0.358,0.561-1.021,0.856-1.366,0.856c-0.004,0-0.005,0-0.007,0c-0.063,0-0.134,0.011-0.21,0.021	C32.547,18.302,32.393,18.321,32.216,18.321z M31.795,15.182c-0.27,0-0.546,0.127-0.707,0.34c-0.225,0.294-0.281,0.489-0.179,1.064	c0.017,0.011,0.183,0.216,0.331,0.369c0.275,0.283,0.42,0.324,0.872,0.362c0.151,0.013,0.29-0.005,0.436-0.024	c0.127-0.017,0.257-0.021,0.347-0.029c0.041-0.011,0.358-0.138,0.523-0.396c0.091-0.143,0.145-0.274,0.16-0.394	c0.028-0.221-0.098-0.488-0.33-0.698c-0.413-0.372-0.799-0.575-1.085-0.554c-0.054,0.005-0.11-0.001-0.164-0.016	C31.933,15.189,31.863,15.182,31.795,15.182z"/><path fill="#010101" d="M16.499,21.313c-2.396,0-4.833-0.058-7.526-0.171c-0.276-0.012-0.49-0.245-0.479-0.521	s0.271-0.466,0.521-0.479c5.046,0.216,9.188,0.226,13.848,0.038c3.062-0.121,5.514-0.125,9.374-0.012	c1.02,0.03,1.894-0.015,2.664-0.054c0.942-0.047,1.759-0.089,2.607,0.005c0.274,0.03,0.472,0.277,0.441,0.553	c-0.03,0.273-0.27,0.47-0.553,0.441c-0.765-0.086-1.544-0.046-2.445,0c-0.79,0.039-1.683,0.085-2.744,0.055	c-3.832-0.112-6.268-0.109-9.304,0.012C20.702,21.269,18.617,21.313,16.499,21.313z"/><path fill="#febf10" d="M15.271,10.059c-0.327,0.129-0.903,0.337-1.09,0.577c-0.186,0.24-0.219,0.562-0.228,0.866	c-0.037,1.216,0.184,2.424,0.404,3.621c0.021,0.116,0.083,1.12,0.831,1.251c0.419,0.074,0.958,0.076,1.252-0.232	c0.294-0.308,0.459-0.954,0.58-1.363c0.219-0.742,0.398-1.496,0.537-2.257c0.084-0.462,0.152-0.946,0.009-1.393	c-0.14-0.437-0.484-0.803-0.912-0.969S15.839,10.009,15.271,10.059"/><path fill="#010101" d="M15.635,16.916c-0.188,0-0.37-0.02-0.533-0.049c-0.392-0.068-1.071-0.373-1.234-1.634	c-0.224-1.224-0.453-2.469-0.415-3.746c0.011-0.375,0.059-0.806,0.333-1.158c0.235-0.303,0.688-0.496,1.211-0.7	c0.044-0.017,0.182-0.063,0.229-0.067c0.583-0.051,1.071-0.075,1.609,0.134c0.569,0.22,1.02,0.699,1.207,1.282	c0.179,0.56,0.098,1.137,0.007,1.635c-0.14,0.772-0.325,1.549-0.549,2.309l-0.035,0.12c-0.131,0.455-0.312,1.079-0.662,1.446	C16.487,16.817,16.048,16.916,15.635,16.916z M15.386,10.552c-0.014,0.005-0.025,0.01-0.025,0.01	c-0.187,0.072-0.682,0.266-0.786,0.384c-0.096,0.123-0.116,0.358-0.122,0.571c-0.036,1.172,0.184,2.363,0.396,3.516	c0.053,0.402,0.159,0.804,0.426,0.851c0.376,0.066,0.692,0.032,0.804-0.086c0.181-0.189,0.333-0.718,0.425-1.033l0.037-0.126	c0.214-0.725,0.39-1.467,0.524-2.204c0.072-0.396,0.134-0.812,0.025-1.151c-0.094-0.293-0.33-0.544-0.616-0.654	C16.174,10.511,15.899,10.507,15.386,10.552z"/><path fill="#febf10" d="M24.316,9.647c-0.586,0.123-0.851-0.014-1.43,0.48c-0.256,0.219-0.388,0.713-0.379,1.05	c0.009,0.35,0.05,0.667,0.064,1.142c0.018,0.603,0.158,0.872,0.275,1.582c0.061,0.366,0.148,0.913,0.225,1.276	c0.1,0.474,0.404,0.856,0.847,1.053c0.437,0.194,0.971-0.031,1.272-0.403s0.418-0.857,0.508-1.326	c0.263-1.376,0.378-2.365,0.312-3.765c-0.011-0.231-0.083-0.561-0.39-0.805C25.38,9.741,24.804,9.584,24.316,9.647"/><path fill="#febf10" d="M32.599,9.83c-0.565,0.021-1.177,0.139-1.546,0.566c-0.356,0.411-0.396,1.001-0.399,1.545	c-0.007,1.012,0.058,2.044,0.415,2.991c0.119,0.317,0.276,0.63,0.527,0.858s0.61,0.359,0.936,0.267	c0.166-0.047,0.311-0.146,0.453-0.244c0.2-0.138,0.68-0.904,0.767-1.131c0.332-0.871,0.366-1.15,0.481-2.004	c0.108-0.809,0.035-0.495,0.039-1.311C34.273,10.623,33.59,9.725,32.599,9.83"/><path fill="#010101" d="M24.257,16.802c-0.181,0-0.365-0.035-0.543-0.114c-0.585-0.26-0.999-0.772-1.133-1.406	c-0.068-0.323-0.145-0.789-0.205-1.15l-0.024-0.147c-0.043-0.261-0.09-0.459-0.131-0.637c-0.071-0.304-0.138-0.591-0.151-1.012	c-0.007-0.243-0.021-0.443-0.035-0.628c-0.013-0.178-0.024-0.343-0.029-0.516c-0.012-0.457,0.157-1.104,0.555-1.443	c0.538-0.461,0.916-0.499,1.28-0.537c0.11-0.012,0.231-0.023,0.373-0.053c0.013-0.003,0.025-0.005,0.038-0.007	c0.585-0.072,1.305,0.092,1.679,0.389c0.355,0.283,0.556,0.688,0.578,1.173c0.07,1.484-0.064,2.547-0.32,3.882	c-0.096,0.502-0.23,1.077-0.61,1.547C25.277,16.514,24.776,16.802,24.257,16.802z M24.397,10.142	c-0.171,0.034-0.318,0.05-0.454,0.064c-0.296,0.03-0.432,0.044-0.733,0.302c-0.097,0.084-0.211,0.403-0.204,0.657	c0.004,0.157,0.015,0.308,0.027,0.471c0.014,0.196,0.029,0.41,0.037,0.669c0.01,0.32,0.058,0.528,0.125,0.815	c0.045,0.195,0.096,0.413,0.144,0.699l0.024,0.148c0.057,0.348,0.131,0.796,0.196,1.106c0.068,0.32,0.267,0.569,0.561,0.699	c0.191,0.084,0.496-0.032,0.681-0.261c0.234-0.29,0.332-0.723,0.405-1.105c0.248-1.292,0.369-2.256,0.305-3.647	c-0.01-0.193-0.075-0.336-0.202-0.437C25.195,10.233,24.771,10.097,24.397,10.142z"/><path fill="#010101" d="M32.312,16.586c-0.37,0-0.752-0.15-1.055-0.427c-0.359-0.326-0.548-0.757-0.658-1.052	c-0.405-1.075-0.453-2.206-0.446-3.17c0.004-0.661,0.069-1.346,0.521-1.868c0.397-0.461,1.016-0.702,1.889-0.738	c0.553-0.05,1.083,0.126,1.5,0.502c0.438,0.396,0.708,0.984,0.706,1.536c-0.001,0.281,0.008,0.42,0.014,0.521	c0.014,0.224,0.015,0.319-0.058,0.854c-0.118,0.885-0.16,1.202-0.509,2.115c-0.087,0.231-0.606,1.13-0.95,1.366	c-0.158,0.108-0.354,0.243-0.601,0.312C32.552,16.57,32.433,16.586,32.312,16.586z M32.755,10.322c-0.033,0-0.068,0.001-0.104,0.005	c-0.012,0.001-0.022,0.002-0.034,0.003c-0.589,0.022-0.977,0.15-1.186,0.394c-0.228,0.262-0.275,0.677-0.278,1.22	c-0.006,0.873,0.035,1.89,0.382,2.812c0.118,0.315,0.244,0.526,0.396,0.664c0.144,0.132,0.328,0.192,0.462,0.156	c0.089-0.025,0.195-0.099,0.308-0.175c0.115-0.103,0.518-0.729,0.581-0.896c0.308-0.806,0.34-1.05,0.448-1.858	c0.066-0.499,0.064-0.541,0.055-0.696c-0.007-0.112-0.017-0.269-0.016-0.585c0.001-0.272-0.146-0.582-0.377-0.79	C33.261,10.456,33.047,10.322,32.755,10.322z M32.599,9.83h0.01H32.599z"/><path fill="#010101" d="M13.056,27.245c-0.24,0-0.469-0.014-0.646-0.062c-0.087-0.023-0.232-0.062-0.367-0.177	c-0.196-0.166-0.252-0.392-0.279-0.5c-0.138-0.556-0.09-1.141-0.043-1.707c0.031-0.371,0.06-0.723,0.033-1.033	c-0.007-0.084-0.021-0.274,0.1-0.46c0.156-0.237,0.401-0.28,0.493-0.297c0.409-0.071,0.878-0.036,1.333,0	c0.393,0.032,0.799,0.062,1.081,0.013c0.021-0.004,0.042-0.006,0.063-0.007c0.475-0.023,0.951-0.039,1.427-0.049	c0.084,0.001,0.344-0.007,0.536,0.206c0.19,0.214,0.162,0.468,0.152,0.552c-0.046,0.376-0.03,0.784-0.013,1.217	c0.022,0.546,0.044,1.109-0.061,1.651c-0.018,0.096-0.057,0.295-0.223,0.454c-0.246,0.243-0.566,0.201-0.717,0.184	c-0.331-0.041-0.822-0.03-1.256-0.018c-0.26,0.007-0.507,0.014-0.709,0.009c-0.097-0.001-0.233,0.004-0.382,0.01	C13.409,27.238,13.229,27.245,13.056,27.245z M12.726,26.226c0.221,0.029,0.583,0.016,0.813,0.007	c0.17-0.007,0.326-0.012,0.441-0.011c0.188,0.004,0.42-0.003,0.665-0.009c0.442-0.012,0.896-0.023,1.267,0.011	c0.05-0.396,0.033-0.81,0.016-1.242c-0.013-0.331-0.027-0.671-0.011-1.006c-0.341,0.009-0.678,0.021-1.014,0.037	c-0.401,0.065-0.858,0.029-1.299-0.006c-0.291-0.022-0.588-0.046-0.839-0.036c0.004,0.306-0.021,0.612-0.046,0.911	C12.678,25.372,12.639,25.837,12.726,26.226z"/><path fill="#010101" d="M21.821,27.424c-0.104,0-0.233-0.016-0.363-0.082c-0.228-0.116-0.333-0.318-0.392-0.46	c-0.36-0.852-0.323-1.493-0.281-2.237c0.015-0.251,0.03-0.524,0.032-0.835c-0.074-0.315,0.063-0.51,0.191-0.614	c0.176-0.141,0.369-0.141,0.441-0.141l2.354,0.019c0.609-0.019,0.853-0.002,1.255,0.027l0.188,0.014	c0.397,0.027,0.729,0.323,0.804,0.719l0.061,0.316c0.147,0.764,0.274,1.423,0.212,2.285c-0.021,0.289-0.137,0.496-0.344,0.615	c-0.126,0.071-0.243,0.084-0.3,0.09c-0.665,0.076-1.271,0.107-1.877,0.139c-0.586,0.03-1.172,0.061-1.819,0.135	C21.944,27.417,21.888,27.424,21.821,27.424z M21.813,24.058c-0.006,0.232-0.018,0.444-0.029,0.644	c-0.039,0.676-0.064,1.128,0.183,1.74c0.607-0.101,1.195-0.131,1.784-0.161c0.515-0.027,1.029-0.053,1.584-0.109	c0.022-0.648-0.079-1.179-0.206-1.832l-0.044-0.233l-0.1-0.007c-0.387-0.029-0.595-0.046-1.159-0.025c-0.007,0-0.014,0.001-0.022,0	L21.813,24.058z M25.177,24.112L25.177,24.112L25.177,24.112z"/><path fill="#010101" d="M32.981,27.381c-0.409,0-0.81-0.021-1.202-0.042c-0.643-0.035-1.249-0.065-1.864-0.013	c-0.46,0.046-0.777-0.092-0.946-0.39c-0.108-0.189-0.105-0.384-0.104-0.488c0.001-0.438,0.035-0.722,0.07-1.008	c0.045-0.368,0.088-0.716,0.051-1.48c-0.032-0.224-0.1-0.683,0.321-0.904c0.163-0.086,0.319-0.081,0.408-0.082	c0.343,0.009,0.86,0.045,1.38,0.081c0.509,0.036,1.021,0.072,1.354,0.08c0.002,0,0.003,0,0.005,0l0.374,0.018	c0.357,0.018,0.506,0.026,1.151-0.077c0.156-0.028,0.305,0.021,0.417,0.124c0.112,0.103,0.172,0.251,0.162,0.403	c-0.03,0.44-0.015,0.825,0,1.197c0.023,0.59,0.048,1.199-0.118,1.962c-0.02,0.089-0.064,0.283-0.236,0.429	c-0.166,0.134-0.338,0.15-0.42,0.158C33.513,27.372,33.245,27.381,32.981,27.381z M30.628,26.298c0.409,0,0.811,0.021,1.204,0.042	c0.572,0.029,1.116,0.06,1.666,0.026c0.099-0.559,0.081-1.012,0.061-1.527c-0.009-0.224-0.019-0.451-0.019-0.695	c-0.299,0.029-0.488,0.022-0.767,0.007l-0.353-0.016c-0.345-0.009-0.871-0.045-1.396-0.082c-0.369-0.026-0.737-0.053-1.037-0.067	c0.035,0.801-0.014,1.195-0.061,1.577c-0.027,0.223-0.055,0.444-0.062,0.765C30.122,26.306,30.376,26.298,30.628,26.298z"/><path fill="#010101" d="M12.616,34.17c-0.307,0-0.531-0.106-0.665-0.317c-0.096-0.15-0.129-0.337-0.096-0.527	c0.146-0.822,0.116-1.314,0.084-1.836c-0.022-0.373-0.046-0.758-0.013-1.268c0.008-0.119,0.084-0.316,0.168-0.402	c0.088-0.09,0.249-0.189,0.501-0.172c0.539,0.032,1.225,0.028,1.918,0.022c0.789-0.003,1.602-0.01,2.242,0.038	c0.18,0.014,0.338,0.123,0.415,0.287c0.146,0.311,0.121,0.665,0.096,1.008c-0.012,0.172-0.028,0.348-0.009,0.51	c0.093,0.825,0.045,1.224-0.064,1.977c-0.058,0.397-0.272,0.555-0.442,0.617c-0.055,0.02-0.196,0.04-0.255,0.04L12.63,34.17	C12.625,34.17,12.621,34.17,12.616,34.17z M12.911,30.661c-0.003,0.276,0.012,0.517,0.027,0.767c0.029,0.488,0.06,0.991-0.045,1.74	l3.339-0.02c0.081-0.576,0.104-0.894,0.032-1.522c-0.025-0.221-0.011-0.461,0.005-0.694c0.005-0.073,0.012-0.163,0.015-0.248	c-0.531-0.021-1.154-0.016-1.764-0.014C13.958,30.675,13.399,30.676,12.911,30.661z M12.526,30.645c0.001,0,0.002,0,0.003,0	C12.528,30.645,12.527,30.645,12.526,30.645z"/><path fill="#010101" d="M21.725,34.222c-0.084,0-0.188-0.012-0.296-0.061c-0.149-0.065-0.347-0.221-0.424-0.575	c-0.067-0.316-0.016-0.664,0.034-1c0.03-0.205,0.062-0.416,0.05-0.545c-0.016-0.179-0.018-0.312-0.02-0.442	c-0.002-0.144-0.004-0.279-0.034-0.49c-0.062-0.437-0.056-0.607,0.027-0.765c0.113-0.213,0.307-0.293,0.37-0.32	c0.372-0.153,0.757-0.141,1.068-0.133l1.25,0.039c0.332-0.005,0.621-0.022,0.884-0.038c0.596-0.036,1.112-0.067,1.683,0.08	c0.222,0.058,0.376,0.258,0.375,0.485c-0.001,0.373,0.033,0.728,0.065,1.077c0.059,0.622,0.119,1.265-0.005,1.967	c-0.018,0.101-0.095,0.265-0.167,0.337c-0.152,0.145-0.321,0.163-0.376,0.169c-0.701,0.077-1.474,0.092-2.221,0.106	c-0.725,0.014-1.474,0.028-2.132,0.101C21.823,34.218,21.777,34.222,21.725,34.222z M22.015,30.898	c0.004,0.028,0.007,0.052,0.009,0.065c0.038,0.27,0.042,0.439,0.044,0.619c0.002,0.108,0.003,0.221,0.017,0.37	c0.021,0.246-0.019,0.518-0.057,0.779c-0.023,0.157-0.048,0.327-0.054,0.465c0.653-0.058,1.334-0.071,1.997-0.084	c0.618-0.012,1.254-0.024,1.836-0.072c0.045-0.469,0.001-0.93-0.044-1.413c-0.023-0.247-0.047-0.496-0.06-0.752	c-0.298-0.03-0.614-0.011-1.008,0.014c-0.28,0.017-0.588,0.035-0.942,0.04c-0.007,0.001-0.014,0-0.021,0l-1.262-0.039	C22.312,30.886,22.155,30.88,22.015,30.898z"/><path fill="#010101" d="M30.994,34.029c-0.363,0-0.732-0.021-1.104-0.11c-0.075-0.018-0.26-0.061-0.413-0.204	c-0.192-0.179-0.235-0.417-0.253-0.519c-0.102-0.574-0.098-1.138-0.094-1.683l0.013-1.268c0-0.063,0-0.27,0.153-0.444	c0.146-0.163,0.327-0.196,0.387-0.208c0.714-0.144,1.45-0.172,2.18-0.083c0.317,0.005,0.586,0.002,0.84,0	c0.428-0.004,0.814-0.006,1.304,0.016c0.444,0.021,0.786,0.387,0.778,0.834c-0.007,0.36,0.026,0.726,0.06,1.107	c0.052,0.59,0.109,1.257,0.043,2.007c-0.012,0.136-0.078,0.261-0.185,0.346c-0.104,0.084-0.235,0.127-0.377,0.106	c-0.482-0.062-1.064-0.015-1.624,0.028c-0.314,0.025-0.623,0.05-0.913,0.057l-0.256,0.007	C31.355,34.024,31.176,34.029,30.994,34.029z M30.204,32.99c0.382,0.059,0.826,0.042,1.299,0.029l0.263-0.008	c0.271-0.006,0.562-0.029,0.857-0.053c0.427-0.034,0.865-0.062,1.294-0.062c0.008-0.472-0.031-0.912-0.068-1.343	c-0.031-0.356-0.061-0.699-0.063-1.036c-0.388-0.013-0.714-0.01-1.075-0.008c-0.267,0.001-0.55,0.004-0.887,0	c-0.019,0-0.038-0.002-0.058-0.004c-0.543-0.069-1.088-0.062-1.625,0.021l-0.01,0.992C30.127,32.011,30.124,32.516,30.204,32.99z"/></svg>