<svg data-svgs-path="sm1/priority_3.svg" xmlns="http://www.w3.org/2000/svg" width="24" height="24" viewBox="0 0 24 24"><path fill="#246fe0" fill-rule="nonzero" d="M5 13.777V19.5a.5.5 0 1 1-1 0V5a.5.5 0 0 1 .223-.416C5.313 3.857 6.742 3.5 8.5 3.5c1.113 0 1.92.196 3.658.776C13.796 4.82 14.53 5 15.5 5c1.575 0 2.813-.31 3.723-.916A.5.5 0 0 1 20 4.5V13a.5.5 0 0 1-.223.416c-1.09.727-2.519 1.084-4.277 1.084-1.113 0-1.92-.196-3.658-.776C10.204 13.18 9.47 13 8.5 13c-1.45 0-2.614.262-3.5.777z"></path></svg>