<?xml version="1.0" encoding="UTF-8"?>
<svg xmlns="http://www.w3.org/2000/svg" xmlns:xlink="http://www.w3.org/1999/xlink" viewBox="0 0 45 45" width="45px" height="45px">
<g id="surface52088391">
<path style=" stroke:none;fill-rule:nonzero;fill:rgb(100%,100%,100%);fill-opacity:1;" d="M 17.101562 29.699219 C 17.101562 30.445312 16.496094 31.050781 15.75 31.050781 C 15.003906 31.050781 14.398438 30.445312 14.398438 29.699219 C 14.398438 28.953125 15.003906 28.351562 15.75 28.351562 C 16.496094 28.351562 17.101562 28.953125 17.101562 29.699219 Z M 17.101562 29.699219 "/>
<path style=" stroke:none;fill-rule:nonzero;fill:rgb(100%,100%,100%);fill-opacity:1;" d="M 31.5 8.550781 L 13.949219 8.550781 C 10.980469 8.550781 8.550781 10.980469 8.550781 13.949219 L 8.550781 31.5 C 8.550781 34.46875 10.980469 36.898438 13.949219 36.898438 L 31.5 36.898438 C 34.46875 36.898438 36.898438 34.46875 36.898438 31.5 L 36.898438 13.949219 C 36.898438 10.980469 34.46875 8.550781 31.5 8.550781 Z M 31.5 8.550781 "/>
<path style=" stroke:none;fill-rule:nonzero;fill:rgb(12.156863%,12.941177%,16.862746%);fill-opacity:1;" d="M 31.5 37.34375 L 13.949219 37.34375 C 10.71875 37.34375 8.101562 34.726562 8.101562 31.496094 L 8.101562 13.945312 C 8.101562 10.714844 10.71875 8.09375 13.949219 8.09375 L 31.5 8.09375 C 34.730469 8.09375 37.351562 10.714844 37.351562 13.945312 L 37.351562 31.496094 C 37.351562 34.726562 34.730469 37.34375 31.5 37.34375 Z M 9 13.945312 L 9 31.496094 C 9 34.226562 11.214844 36.445312 13.949219 36.445312 L 31.5 36.445312 C 34.234375 36.445312 36.449219 34.226562 36.449219 31.496094 L 36.449219 13.945312 C 36.449219 11.210938 34.234375 8.996094 31.5 8.996094 L 13.949219 8.996094 C 11.214844 8.996094 9 11.210938 9 13.945312 Z M 9 13.945312 "/>
<path style=" stroke:none;fill-rule:nonzero;fill:rgb(12.156863%,12.941177%,16.862746%);fill-opacity:1;" d="M 30.214844 35.09375 L 15.21875 35.09375 C 12.527344 35.09375 10.34375 32.910156 10.34375 30.21875 L 10.34375 15.222656 C 10.34375 12.527344 12.527344 10.34375 15.21875 10.34375 L 30.367188 10.34375 C 30.492188 10.34375 30.59375 10.445312 30.59375 10.570312 C 30.59375 10.695312 30.492188 10.792969 30.367188 10.792969 L 15.21875 10.792969 C 12.777344 10.792969 10.792969 12.777344 10.792969 15.222656 L 10.792969 30.21875 C 10.792969 32.664062 12.777344 34.644531 15.222656 34.644531 L 30.21875 34.644531 C 32.660156 34.644531 34.644531 32.664062 34.644531 30.21875 L 34.644531 21.820312 C 34.644531 21.695312 34.746094 21.59375 34.867188 21.59375 C 34.992188 21.59375 35.09375 21.695312 35.09375 21.820312 L 35.09375 30.21875 C 35.09375 32.910156 32.910156 35.09375 30.214844 35.09375 Z M 34.867188 20.503906 C 34.746094 20.503906 34.644531 20.40625 34.644531 20.28125 L 34.644531 18.480469 C 34.644531 18.355469 34.746094 18.253906 34.867188 18.253906 C 34.992188 18.253906 35.09375 18.355469 35.09375 18.480469 L 35.09375 20.28125 C 35.09375 20.40625 34.992188 20.503906 34.867188 20.503906 Z M 34.867188 17.804688 C 34.746094 17.804688 34.644531 17.703125 34.644531 17.582031 L 34.644531 16.679688 C 34.644531 16.554688 34.746094 16.457031 34.867188 16.457031 C 34.992188 16.457031 35.09375 16.554688 35.09375 16.679688 L 35.09375 17.582031 C 35.09375 17.703125 34.992188 17.804688 34.867188 17.804688 Z M 34.867188 17.804688 "/>
<path style=" stroke:none;fill-rule:nonzero;fill:rgb(94.509804%,35.686275%,42.352942%);fill-opacity:1;" d="M 17.101562 22.5 C 17.101562 23.246094 16.496094 23.851562 15.75 23.851562 C 15.003906 23.851562 14.398438 23.246094 14.398438 22.5 C 14.398438 21.753906 15.003906 21.148438 15.75 21.148438 C 16.496094 21.148438 17.101562 21.753906 17.101562 22.5 Z M 17.101562 22.5 "/>
<path style=" stroke:none;fill-rule:nonzero;fill:rgb(12.156863%,12.941177%,16.862746%);fill-opacity:1;" d="M 15.75 21.601562 C 16.246094 21.601562 16.648438 22.003906 16.648438 22.5 C 16.648438 22.996094 16.246094 23.398438 15.75 23.398438 C 15.253906 23.398438 14.851562 22.996094 14.851562 22.5 C 14.851562 22.003906 15.253906 21.601562 15.75 21.601562 M 15.75 21.148438 C 15.003906 21.148438 14.398438 21.753906 14.398438 22.5 C 14.398438 23.246094 15.003906 23.851562 15.75 23.851562 C 16.496094 23.851562 17.101562 23.246094 17.101562 22.5 C 17.101562 21.753906 16.496094 21.148438 15.75 21.148438 Z M 15.75 21.148438 "/>
<path style="fill:none;stroke-width:1;stroke-linecap:round;stroke-linejoin:round;stroke:rgb(12.156863%,12.941177%,16.862746%);stroke-opacity:1;stroke-miterlimit:10;" d="M 60.2 76.548958 C 54.989236 76.548958 50.748958 80.789236 50.748958 86 C 50.748958 91.210764 54.989236 95.451042 60.2 95.451042 C 65.410764 95.451042 69.651042 91.210764 69.651042 86 C 69.651042 80.789236 65.410764 76.548958 60.2 76.548958 Z M 60.2 76.548958 " transform="matrix(0.261628,0,0,0.261628,0,0)"/>
<path style=" stroke:none;fill-rule:nonzero;fill:rgb(47.058824%,63.529414%,82.352942%);fill-opacity:1;" d="M 17.101562 15.300781 C 17.101562 16.046875 16.496094 16.648438 15.75 16.648438 C 15.003906 16.648438 14.398438 16.046875 14.398438 15.300781 C 14.398438 14.554688 15.003906 13.949219 15.75 13.949219 C 16.496094 13.949219 17.101562 14.554688 17.101562 15.300781 Z M 17.101562 15.300781 "/>
<path style=" stroke:none;fill-rule:nonzero;fill:rgb(12.156863%,12.941177%,16.862746%);fill-opacity:1;" d="M 15.75 14.398438 C 16.246094 14.398438 16.648438 14.804688 16.648438 15.300781 C 16.648438 15.796875 16.246094 16.199219 15.75 16.199219 C 15.253906 16.199219 14.851562 15.796875 14.851562 15.300781 C 14.851562 14.804688 15.253906 14.398438 15.75 14.398438 M 15.75 13.949219 C 15.003906 13.949219 14.398438 14.554688 14.398438 15.300781 C 14.398438 16.046875 15.003906 16.648438 15.75 16.648438 C 16.496094 16.648438 17.101562 16.046875 17.101562 15.300781 C 17.101562 14.554688 16.496094 13.949219 15.75 13.949219 Z M 15.75 13.949219 "/>
<path style="fill:none;stroke-width:1;stroke-linecap:round;stroke-linejoin:round;stroke:rgb(12.156863%,12.941177%,16.862746%);stroke-opacity:1;stroke-miterlimit:10;" d="M 60.2 49.031944 C 54.989236 49.031944 50.748958 53.272222 50.748958 58.482986 C 50.748958 63.69375 54.989236 67.919097 60.2 67.919097 C 65.410764 67.919097 69.651042 63.69375 69.651042 58.482986 C 69.651042 53.272222 65.410764 49.031944 60.2 49.031944 Z M 60.2 49.031944 " transform="matrix(0.261628,0,0,0.261628,0,0)"/>
<path style=" stroke:none;fill-rule:nonzero;fill:rgb(100%,100%,100%);fill-opacity:1;" d="M 17.101562 29.699219 C 17.101562 30.445312 16.496094 31.050781 15.75 31.050781 C 15.003906 31.050781 14.398438 30.445312 14.398438 29.699219 C 14.398438 28.953125 15.003906 28.351562 15.75 28.351562 C 16.496094 28.351562 17.101562 28.953125 17.101562 29.699219 Z M 17.101562 29.699219 "/>
<path style="fill:none;stroke-width:1;stroke-linecap:round;stroke-linejoin:round;stroke:rgb(12.156863%,12.941177%,16.862746%);stroke-opacity:1;stroke-miterlimit:10;" d="M 60.2 104.080903 C 54.989236 104.080903 50.748958 108.30625 50.748958 113.517014 C 50.748958 118.727778 54.989236 122.968056 60.2 122.968056 C 65.410764 122.968056 69.651042 118.727778 69.651042 113.517014 C 69.651042 108.30625 65.410764 104.080903 60.2 104.080903 Z M 60.2 104.080903 " transform="matrix(0.261628,0,0,0.261628,0,0)"/>
<path style=" stroke:none;fill-rule:nonzero;fill:rgb(12.156863%,12.941177%,16.862746%);fill-opacity:1;" d="M 15.75 31.050781 C 15.003906 31.050781 14.398438 30.445312 14.398438 29.699219 C 14.398438 28.957031 15.003906 28.351562 15.75 28.351562 C 16.496094 28.351562 17.101562 28.957031 17.101562 29.699219 C 17.101562 30.445312 16.496094 31.050781 15.75 31.050781 Z M 15.75 28.800781 C 15.253906 28.800781 14.851562 29.203125 14.851562 29.699219 C 14.851562 30.195312 15.253906 30.601562 15.75 30.601562 C 16.246094 30.601562 16.648438 30.195312 16.648438 29.699219 C 16.648438 29.203125 16.246094 28.800781 15.75 28.800781 Z M 15.75 28.800781 "/>
<path style="fill:none;stroke-width:1;stroke-linecap:round;stroke-linejoin:round;stroke:rgb(12.156863%,12.941177%,16.862746%);stroke-opacity:1;stroke-miterlimit:10;" d="M 78.265972 59.334028 L 122.982986 59.334028 " transform="matrix(0.261628,0,0,0.261628,0,0)"/>
<path style="fill:none;stroke-width:1;stroke-linecap:round;stroke-linejoin:round;stroke:rgb(12.156863%,12.941177%,16.862746%);stroke-opacity:1;stroke-miterlimit:10;" d="M 78.265972 86.865972 L 122.982986 86.865972 " transform="matrix(0.261628,0,0,0.261628,0,0)"/>
<path style="fill:none;stroke-width:1;stroke-linecap:round;stroke-linejoin:round;stroke:rgb(12.156863%,12.941177%,16.862746%);stroke-opacity:1;stroke-miterlimit:10;" d="M 78.265972 114.382986 L 122.982986 114.382986 " transform="matrix(0.261628,0,0,0.261628,0,0)"/>
</g>
</svg>
