<?xml version="1.0" encoding="iso-8859-1"?>
<!-- Generator: Adobe Illustrator 19.0.0, SVG Export Plug-In . SVG Version: 6.00 Build 0)  -->
<svg version="1.1" id="Capa_1" xmlns="http://www.w3.org/2000/svg" xmlns:xlink="http://www.w3.org/1999/xlink" x="0px" y="0px"
	 viewBox="0 0 511.996 511.996" style="enable-background:new 0 0 511.996 511.996;" xml:space="preserve">
<g>
	<path style="fill:#ED1C24;" d="M371.115,20.541c-6.646,6.646-6.646,17.418,0,24.064l12.04,12.032l0,0l72.2,72.2l0,0l12.032,12.04
		c6.646,6.646,17.418,6.646,24.064,0l12.04-12.04L383.155,8.518L371.115,20.541z"/>
	<polygon style="fill:#ED1C24;" points="250.78,164.957 347.051,261.229 455.355,128.853 383.155,56.653 	"/>
	<polygon style="fill:#ED1C24;" points="383.155,56.653 383.155,56.653 455.355,128.853 455.355,128.853 	"/>
	<path style="fill:#ED1C24;" d="M154.508,164.957l-12.04,12.032l84.24,84.24l0,0l24.064,24.064l84.24,84.24l12.04-12.032
		c26.582-26.582,26.582-69.681,0-96.263l-96.272-96.28C224.197,138.375,181.099,138.375,154.508,164.957L154.508,164.957z"/>
</g>
<polygon style="fill:#E6E7E8;" points="82.019,405.926 31.679,480.329 105.683,430.398 250.78,285.293 226.716,261.229 "/>
<path style="fill:#ED1C24;" d="M226.716,261.229l24.064,24.064L226.716,261.229z"/>
<path style="fill:#231F20;" d="M509.507,122.837L389.171,2.51c-3.319-3.319-8.713-3.319-12.032,0l-12.04,12.074
	c-9.964,9.964-9.964,26.131,0,36.096l5.386,5.386l-119.442,97.676c-30.454-24.83-74.761-22.583-102.543,5.199l-12.04,12.032
	c-3.327,3.319-3.327,8.705-0.008,12.032l0.008,0.008l78.224,78.215L75.986,399.927L0,511.974l110.439-74.488l140.332-140.17
	l78.224,78.233c3.319,3.327,8.705,3.327,12.032,0.008l0.009-0.008l12.032-12.04c27.74-27.808,29.986-72.08,5.199-102.551
	l97.718-119.442l5.386,5.386c9.973,9.964,26.123,9.964,36.096,0l12.04-12.032C512.825,131.55,512.825,126.164,509.507,122.837z
	 M100.22,423.795l-36.853,24.889l25.246-37.321l138.102-138.102l12.032,12.032L100.22,423.795z M341.027,351.468l-6.024,6.016
	L154.508,176.997l6.016-6.024c23.264-23.264,60.976-23.264,84.231-0.008c0,0,0,0,0.008,0.008l96.272,96.272
	C364.257,290.526,364.257,328.204,341.027,351.468L341.027,351.468z M443.893,129.457l-97.472,119.127l-82.998-82.989l119.127-97.48
	L443.893,129.457z M485.435,134.894c-3.361,3.225-8.662,3.225-12.023,0l0,0L377.14,38.606c-3.319-3.327-3.319-8.713,0-12.032
	l6.024-6.016l108.304,108.295L485.435,134.894z"/>
<g>
</g>
<g>
</g>
<g>
</g>
<g>
</g>
<g>
</g>
<g>
</g>
<g>
</g>
<g>
</g>
<g>
</g>
<g>
</g>
<g>
</g>
<g>
</g>
<g>
</g>
<g>
</g>
<g>
</g>
</svg>
